<?xml version="1.0" encoding="UTF-8" standalone="no"?>
<!DOCTYPE svg PUBLIC "-//W3C//DTD SVG 1.1//EN"
 "http://www.w3.org/Graphics/SVG/1.1/DTD/svg11.dtd">
<!-- Generated by graphviz version 2.26.3 (20100126.1600)
 -->
<!-- Title: G Pages: 1 -->
<svg width="354pt" height="98pt"
 viewBox="0.00 0.00 354.00 98.00" xmlns="http://www.w3.org/2000/svg" xmlns:xlink="http://www.w3.org/1999/xlink">
<g id="graph1" class="graph" transform="scale(1 1) rotate(0) translate(4 94)">
<title>G</title>
<polygon fill="white" stroke="white" points="-4,5 -4,-94 351,-94 351,5 -4,5"/>
<g id="graph2" class="cluster"><title>cluster_global</title>
<polyline fill="none" stroke="gray" points="270,-8 326,-8 "/>
<path fill="none" stroke="gray" d="M326,-8C332,-8 338,-14 338,-20"/>
<polyline fill="none" stroke="gray" points="338,-20 338,-70 "/>
<path fill="none" stroke="gray" d="M338,-70C338,-76 332,-82 326,-82"/>
<polyline fill="none" stroke="gray" points="326,-82 270,-82 "/>
<path fill="none" stroke="gray" d="M270,-82C264,-82 258,-76 258,-70"/>
<polyline fill="none" stroke="gray" points="258,-70 258,-20 "/>
<path fill="none" stroke="gray" d="M258,-20C258,-14 264,-8 270,-8"/>
<text text-anchor="middle" x="298" y="-68.1" font-family="Times Roman,serif" font-size="11.00" fill="gray">global</text>
</g>
<!-- \\Service -->
<g id="node2" class="node"><title>\\Service</title>
<a xlink:href="service.html" xlink:title="Service" target="_parent">
<polygon fill="none" stroke="black" points="330,-52 266,-52 266,-16 330,-16 330,-52"/>
<text text-anchor="middle" x="298" y="-31.1" font-family="Courier,monospace" font-size="11.00">Service</text>
</a>
</g>
<!-- \\ServiceInterface -->
<g id="node4" class="node"><title>\\ServiceInterface</title>
<ellipse fill="none" stroke="black" cx="97" cy="-34" rx="96.8736" ry="18.3848"/>
<text text-anchor="middle" x="97" y="-30.4" font-family="Times Roman,serif" font-size="14.00" fill="gray">\\ServiceInterface</text>
</g>
<!-- \\Service&#45;&gt;\\ServiceInterface -->
<g id="edge3" class="edge"><title>\\Service&#45;&gt;\\ServiceInterface</title>
<path fill="none" stroke="black" stroke-dasharray="1,5" d="M265.706,-34C248.769,-34 226.938,-34 204.636,-34"/>
<polygon fill="none" stroke="black" points="204.372,-30.5001 194.372,-34 204.372,-37.5001 204.372,-30.5001"/>
</g>
</g>
</svg>
